<?xml version="1.0" encoding="UTF-8"?>
<!-- Generator: Adobe Illustrator 16.0.5, SVG Export Plug-In . SVG Version: 6.00 Build 0)  -->
<!DOCTYPE svg PUBLIC "-//W3C//DTD SVG 1.1//EN" "http://www.w3.org/Graphics/SVG/1.1/DTD/svg11.dtd">
<svg version="1.1" id="Layer_1" xmlns="http://www.w3.org/2000/svg" xmlns:xlink="http://www.w3.org/1999/xlink" x="0px" y="0px" width="492.342px" height="282.553px" viewBox="0 0 492.342 282.553" enable-background="new 0 0 492.342 282.553" xml:space="preserve">
<path fill-rule="evenodd" clip-rule="evenodd" fill="#334692" d="M390.883,113.443c10.854,5.476,19.96,14.18,25.53,25.169  c18.425,42.398-11.584,63.353-51.791,56.398l-1.593-0.346v17.473h-56.894c14.325,7.457,23.214,17.836,23.214,29.312  c0,22.696-34.749,41.103-77.598,41.103s-77.599-18.406-77.599-41.103c0-10.406,7.31-19.91,19.352-27.151  c-6.435-2.267-14.517-3.536-17.814-4.854c-1.682-1.021-3.248-2.107-4.711-3.262c-6.338-5-10.72-11.28-14.013-19.187l-0.455-1.266  c-3.794,3.933-7.799,6.685-12.8,8.748l-1.589,0.568c-18.998,5.769-45.704,2.302-62.931,2.302v-83.095  C18.983,103.791,0,87.6,0,52.397v-0.005C0,21.553,31.815,0,64.854,0c17.541,0-2.117,8.141-6.565,13.16  c-26.832,30.281,0.713,43.196,23.075,43.691c18.528,0.411,29.173-8.742,41.345-14.251c29.356-13.287,75.302-21.843,126.939-21.843  c47.507,0,90.196,7.242,119.581,18.747c27.215,10.655,28.85,15.286,59.727,15.286c12.132-0.864,37.263-31.448-10.104-53.714  c-0.988-0.465,49.401-9.08,68.75,33.039c3.074,6.692,4.74,14.063,4.74,21.771v0.006c0,35.34-39.436,57.551-71.574,57.551H390.883  L390.883,113.443z M250.292,207.759c-34.264,0-62.05,15.965-62.05,35.651c0,8.544,5.237,16.385,13.962,22.525  c-3.328-3.995-5.194-8.47-5.194-13.194c0-11.61,11.256-21.714,27.838-26.903c-1.057,1.52-1.634,3.161-1.634,4.872  c0,7.826,12.059,14.174,26.929,14.174c14.87,0,26.929-6.348,26.929-14.174c0-1.756-0.609-3.437-1.718-4.988  c16.79,5.153,28.221,15.32,28.221,27.02c0,4.725-1.866,9.199-5.194,13.194c8.726-6.141,13.962-13.981,13.962-22.525  C312.342,223.724,284.556,207.759,250.292,207.759L250.292,207.759z M168.172,40.817v57.278h24.25c0.95,0,2.87-0.27,5.769-0.786  c2.181-0.39,3.811-1.014,4.886-1.867c1.746-1.386,3.117-3.253,4.121-5.628c1.002-2.372,1.502-5.042,1.502-8.015  c0-3.641-0.701-6.672-2.113-9.082c-1.409-2.404-3.616-4.107-6.603-5.094c1.968-0.934,3.466-2.211,4.489-3.828  c1.535-2.424,2.297-5.334,2.297-8.722c0-4.027-1.08-7.413-3.229-10.148c-2.146-2.731-5.226-4.107-9.239-4.107H168.172  L168.172,40.817z M183.193,63.289h5.594c2.007,0,3.41-0.475,4.198-1.427c0.791-0.955,1.173-2.333,1.173-4.121  c0-1.667-0.388-2.974-1.173-3.908c-0.795-0.946-2.163-1.414-4.111-1.414h-5.681V63.289L183.193,63.289z M183.193,85.787h6.563  c2.22,0,3.778-0.537,4.683-1.614c0.908-1.083,1.367-2.534,1.367-4.36c0-1.694-0.446-3.055-1.348-4.081  c-0.901-1.027-2.473-1.547-4.731-1.547h-6.535V85.787L183.193,85.787z M214.296,40.817v57.278h29.103V83.986h-13.737V40.817H214.296  L214.296,40.817z M275.293,40.817v34.967c0,13.144-13.09,12.459-13.09,0V40.817h-14.205v34.154c0,2.814,0.398,6.042,1.192,9.682  c0.495,2.267,1.406,4.468,2.744,6.601c1.337,2.133,2.812,3.788,4.421,4.948s3.608,1.928,6.001,2.32  c2.396,0.394,6.417,0.587,8.444,0.587c3.509,0,6.505-0.64,9.006-1.907c1.803-0.92,3.52-2.493,5.158-4.748  c1.639-2.253,2.841-4.894,3.607-7.895c0.766-3.014,1.153-6.201,1.153-9.588V40.817H275.293L275.293,40.817z M295.5,40.817v57.278  h36.918V85.12h-25.382V73.838h23.19V62.155h-23.19v-9.108h24.752V40.817H295.5L295.5,40.817z M214.281,104.153v61.261  c0,21.824-18.978,21.761-18.978,0v-61.261h-27.338v59.835c0,4.931,0.733,10.585,2.2,16.963c2.8,12.189,11.677,22.364,24.295,24.299  c4.419,0.701,8.498,1.028,12.237,1.028c17.006,0,28.386-9.098,32.792-25.49c1.414-5.28,2.129-10.865,2.129-16.8v-59.835H214.281  L214.281,104.153z M246.884,104.219v100.35h49.159V179.85h-21.969v-75.631H246.884L246.884,104.219z M301.901,104.219v100.35h49.159  V179.85h-21.969v-75.631H301.901L301.901,104.219z M92.226,81.447v0.027C48.356,81.746,7.789,44.877,57.969,6.166  c-34.031,4.932-46.279,26.62-41.618,53.48c6.502,37.467,43.705,45.369,75.875,43.983v83.774h40.986  c1.753,0,5.295-0.493,10.645-1.455c4.025-0.716,7.031-1.875,9.017-3.454c3.22-2.565,5.743-6.02,7.604-10.41  c1.842-4.392,2.772-9.325,2.772-14.826c0-6.735-1.306-12.335-3.9-16.801c-2.612-4.44-6.673-7.598-12.183-9.424  c3.632-1.727,6.387-4.095,8.283-7.08c2.826-4.49,4.24-9.868,4.24-16.134c0-7.45-1.986-13.716-5.958-18.774  c-3.954-5.057-9.643-7.598-17.049-7.598H92.226L92.226,81.447z M116.181,123.016h10.322c3.704,0,6.279-0.888,7.747-2.64  c1.449-1.776,2.165-4.317,2.165-7.623c0-3.083-0.716-5.501-2.165-7.228c-1.467-1.752-3.99-2.615-7.585-2.615h-10.483V123.016  L116.181,123.016z M116.181,164.634h12.111c4.097,0,6.978-0.987,8.641-2.985c1.682-1.998,2.522-4.688,2.522-8.066  c0-3.134-0.823-5.649-2.487-7.55c-1.664-1.899-4.562-2.861-8.73-2.861h-12.058V164.634L116.181,164.634z M351.108,151.224v29.299  c5.228,5.8,13.813,8.683,25.741,8.683c7.442,0,13.614-1.48,18.498-4.44c4.902-2.961,8.713-7.303,11.432-13.051  c2.72-5.724,4.097-11.989,4.097-18.773c0-5.798-1.037-11.027-3.077-15.69c-2.039-4.687-5.313-8.585-9.803-11.742  c-4.49-3.158-11.908-4.922-22.291-7.979c-9.497-2.795-8.506-13.546-1.36-13.734c8.872-0.233,18.259,0.057,27.697,0.057  c31.83,1.088,68.028-7.13,74.435-44.04c4.661-26.861-7.587-48.548-41.618-53.48c44.513,34.339,17.987,66.689-19.322,73.233  c-6.458,1.133-20.971,0.751-32.835,0.432c-1.897-0.233-3.9-0.35-6.013-0.35c-1.161,0-2.286,0.03-3.376,0.088  c-0.496-0.013-0.909-0.023-1.223-0.029l0.084,0.102c-5.891,0.436-12.414,1.292-16.104,3.521c-4.603,2.779-8.033,6.587-10.322,11.422  c-2.29,4.835-3.436,9.991-3.436,15.443c0,8.289,2.248,15.09,6.709,20.451c7.012,8.427,19.51,8.591,26.836,12.982  c6.167,3.697,10.769,14.304,1.08,17.034C369.369,162.794,356.219,159.285,351.108,151.224z"/>
</svg>